<svg xmlns="http://www.w3.org/2000/svg" width="20" height="20" viewBox="0 0 20 20"><path d="M18.2518 8.19961C16.532 8.20372 14.8545 7.6674 13.4561 6.66641V13.6477C13.4556 14.9407 13.0604 16.2027 12.3233 17.265C11.5862 18.3274 10.5423 19.1393 9.33129 19.5924C8.12025 20.0455 6.79977 20.118 5.5464 19.8003C4.29303 19.4826 3.16652 18.7899 2.31749 17.8147C1.46847 16.8395 0.9374 15.6283 0.795302 14.3431C0.653203 13.058 0.906847 11.76 1.52232 10.6229C2.13779 9.48579 3.08575 8.56366 4.23944 7.97983C5.39313 7.39601 6.69757 7.17832 7.97833 7.35586V10.8672C7.39225 10.6828 6.76291 10.6884 6.18018 10.8831C5.59744 11.0777 5.09112 11.4515 4.73352 11.9511C4.37591 12.4507 4.1853 13.0505 4.18892 13.6649C4.19254 14.2793 4.3902 14.8768 4.75366 15.3721C5.11713 15.8675 5.62782 16.2353 6.21281 16.4231C6.79779 16.6109 7.42715 16.609 8.01102 16.4178C8.59488 16.2265 9.10339 15.8557 9.46392 15.3582C9.82445 14.8607 10.0186 14.262 10.0186 13.6477V0H13.4561C13.4537 0.290289 13.478 0.580182 13.5287 0.866016C13.6482 1.50409 13.8965 2.1111 14.2586 2.6499C14.6207 3.1887 15.0889 3.64796 15.6346 3.99961C16.4109 4.51293 17.3211 4.78652 18.2518 4.78633V8.19961Z"></path></svg>